<?xml version="1.0" encoding="UTF-8"?>
<svg xmlns="http://www.w3.org/2000/svg" xmlns:xlink="http://www.w3.org/1999/xlink" width="30px" height="30px" viewBox="0 0 30 30" version="1.1">
<g id="surface1">
<path style=" stroke:none;fill-rule:nonzero;fill:rgb(100%,30.588235%,31.372549%);fill-opacity:1;" d="M 18.5625 24.46875 L 18.375 24.46875 C 16.125 24.46875 13.875 24.46875 11.625 24.46875 C 11.34375 24.46875 11.15625 24.375 11.0625 24.1875 C 8.71875 21.1875 6.28125 18.28125 3.9375 15.28125 C 3.84375 15.09375 3.75 15 3.75 14.8125 C 3.75 11.90625 3.75 9.09375 3.75 6.1875 C 3.75 6.09375 3.75 6 3.84375 6 L 3.9375 6 C 8.8125 12.09375 13.6875 18.1875 18.46875 24.28125 C 18.46875 24.28125 18.46875 24.375 18.5625 24.375 Z M 18.5625 24.46875 "/>
<path style=" stroke:none;fill-rule:nonzero;fill:rgb(100%,30.588235%,31.372549%);fill-opacity:1;" d="M 26.0625 15.28125 C 25.40625 16.125 24.65625 16.96875 24 17.90625 C 23.8125 18.09375 23.625 18.1875 23.4375 18.1875 C 21.1875 18.1875 18.9375 18.1875 16.78125 18.1875 C 16.78125 18.1875 16.6875 18.1875 16.6875 18.1875 C 16.59375 18.1875 16.5 18.09375 16.59375 18 C 16.59375 18 16.59375 17.90625 16.6875 17.90625 C 18.9375 15.09375 21.09375 12.375 23.34375 9.5625 C 24.28125 8.4375 25.21875 7.21875 26.0625 6.09375 C 26.0625 6 26.15625 6 26.25 6 C 26.25 6 26.34375 6 26.34375 6 C 26.34375 6.09375 26.34375 6.09375 26.34375 6.1875 C 26.34375 9 26.34375 11.90625 26.34375 14.71875 C 26.25 15 26.15625 15.1875 26.0625 15.28125 Z M 26.0625 15.28125 "/>
</g>
</svg>
